<svg height="512pt" viewBox="0 0 512 512" width="512pt" xmlns="http://www.w3.org/2000/svg"><path d="m512 256c0 141.386719-114.613281 256-256 256s-256-114.613281-256-256 114.613281-256 256-256 256 114.613281 256 256zm0 0" fill="#2864f0"/><path d="m512 256c0-23.753906-3.25-46.746094-9.304688-68.570312l-109.976562-110.257813-17.449219-17.171875-75.414062-8.261719-171.355469 367.761719 89.71875 89.71875c12.332031 1.824219 24.941406 2.78125 37.78125 2.78125 141.386719 0 256-114.613281 256-256zm0 0" fill="#27488f"/><path d="m128.5 89.140625h241.378906v330.359375h-241.378906zm0 0" fill="#ffd400"/><path d="m255.808594 89.140625h114.070312v330.359375h-114.070312zm0 0" fill="#ffa300"/><path d="m154.898438 118.457031 237.832031-41.277343 43.433593 250.265624-237.832031 41.277344zm0 0" fill="#ffa300"/><path d="m392.71875 77.171875-136.910156 23.765625v257.796875l180.34375-31.304687zm0 0" fill="#fa5d0f"/><path d="m327.625 38.5c-30.636719 0-56.277344 21.765625-62.292969 50.640625h21.382813c5.519531-17.335937 21.769531-29.933594 40.910156-29.933594 23.667969 0 42.925781 19.257813 42.925781 42.925781v122.601563c0 14.464844-11.769531 26.238281-26.238281 26.238281-14.464844 0-26.238281-11.773437-26.238281-26.238281v-116.605469c0-4.9375 4.015625-8.949218 8.949219-8.949218 4.933593 0 8.945312 4.015624 8.945312 8.949218v98.875h20.707031v-98.875c0-16.351562-13.300781-29.65625-29.652343-29.65625-16.351563 0-29.65625 13.304688-29.65625 29.65625v116.605469c0 25.882813 21.0625 46.945313 46.945312 46.945313 25.886719 0 46.945312-21.0625 46.945312-46.945313v-122.601563c0-35.089843-28.542968-63.632812-63.632812-63.632812zm0 0" fill="#fff"/><g fill="#e9edf5"><path d="m327.832031 38.503906v20.707032c23.574219.113281 42.71875 19.320312 42.71875 42.917968v122.605469c0 14.464844-11.769531 26.234375-26.238281 26.234375-6.238281 0-11.972656-2.191406-16.480469-5.839844v23.554688c5.132813 1.929687 10.683594 2.992187 16.480469 2.992187 25.886719 0 46.945312-21.058593 46.945312-46.941406v-122.601563c0-35.019531-28.433593-63.515624-63.425781-63.628906zm0 0"/><path d="m335.96875 108.125v98.878906h20.707031v-98.878906c0-16.078125-12.867187-29.199219-28.84375-29.632812v20.726562c4.554688.414062 8.136719 4.25 8.136719 8.90625zm0 0"/></g></svg>