<svg height="512" viewBox="0 0 48 48" width="512" xmlns="http://www.w3.org/2000/svg" xmlns:xlink="http://www.w3.org/1999/xlink"><linearGradient id="linear-gradient" gradientUnits="userSpaceOnUse" x1="24" x2="24" y1="47" y2="23"><stop offset="0" stop-color="#54a5ff"/><stop offset="1" stop-color="#8ad3fe"/></linearGradient><linearGradient id="linear-gradient-2" gradientUnits="userSpaceOnUse" x1="24" x2="24" y1="36" y2="5"><stop offset="0" stop-color="#d3e6f5"/><stop offset="1" stop-color="#f0f7fc"/></linearGradient><linearGradient id="linear-gradient-3" gradientUnits="userSpaceOnUse" x1="24" x2="24" y1="13" y2="1"><stop offset="0" stop-color="#fe9661"/><stop offset="1" stop-color="#ffb369"/></linearGradient><linearGradient id="linear-gradient-4" xlink:href="#linear-gradient" y1="29.68" y2="47"/><g id="Complaint_Email" data-name="Complaint Email"><path d="m6 23h36a0 0 0 0 1 0 0v22a2 2 0 0 1 -2 2h-32a2 2 0 0 1 -2-2v-22a0 0 0 0 1 0 0z" fill="url(#linear-gradient)"/><path d="m42 23-18 13-18-13 18-13z" fill="#4795ea"/><path d="m38 11v14.89l-14 10.11-14-10.11v-18.89a2 2 0 0 1 2-2h20z" fill="url(#linear-gradient-2)"/><circle cx="18" cy="21" fill="#d7e9f7" r="5"/><circle cx="18" cy="20" fill="#b4cde1" r="2"/><circle cx="24" cy="7" fill="url(#linear-gradient-3)" r="6"/><path d="m42 45a2 2 0 0 1 -2 2h-32a2 2 0 0 1 -2-2l16.67-14.82a2 2 0 0 1 2.66 0z" fill="url(#linear-gradient-4)"/><path d="m38 11h-6v-6z" fill="#b4cde1"/><path d="m24 7a1 1 0 0 1 -1-1v-2a1 1 0 0 1 2 0v2a1 1 0 0 1 -1 1z" fill="#f0f7fc"/><circle cx="24" cy="10" fill="#f0f7fc" r="1"/><g fill="#b4cde1"><path d="m21.66 24.41a5 5 0 0 1 -7.32 0 4 4 0 0 1 7.32 0z"/><path d="m34 18h-8a1 1 0 0 1 0-2h8a1 1 0 0 1 0 2z"/><path d="m34 22h-8a1 1 0 0 1 0-2h8a1 1 0 0 1 0 2z"/><path d="m34 26h-8a1 1 0 0 1 0-2h8a1 1 0 0 1 0 2z"/></g></g></svg>