<svg viewBox="0 0 512 512" xmlns="http://www.w3.org/2000/svg" xmlns:xlink="http://www.w3.org/1999/xlink"><linearGradient id="linear-gradient" gradientUnits="userSpaceOnUse" x1="74.98" x2="437.02" y1="74.98" y2="437.02"><stop offset="0" stop-color="#0bcff4"/><stop offset="1" stop-color="#4d5ef3"/></linearGradient><g id="Layer_2" data-name="Layer 2"><g id="delete"><circle id="background" cx="256" cy="256" fill="url(#linear-gradient)" r="256"/><g fill="#fff"><path d="m162.56 369.73c1.02 16.33 11.84 26.27 28.44 26.27q64.43 0 128.85 0c18.85 0 28.82-9.69 29.95-28.43 3-50.53 10.48-173.73 11-183.78h-209.29c0 2.21 7.33 126.79 11.05 185.94z"/><path d="m360.62 134c-14.79-.09-29.59-.22-44.37.08a19.68 19.68 0 0 0 -19.61-18.08h-81.28a19.68 19.68 0 0 0 -19.61 18c-15.22-.27-30.45-.18-45.68 0-7.93.07-13.71 4.54-15.63 11.51-3.35 12.18 4 22.28 16.66 22.32 35 .11 70 0 105 0q52.17 0 104.35 0c11.3 0 17.84-6.33 17.87-16.87s-6.45-16.96-17.7-16.96z"/></g></g></g></svg>