<svg height="512" viewBox="0 0 500 500" width="512" xmlns="http://www.w3.org/2000/svg"><g id="Layer_2" data-name="Layer 2"><g id="_05.Square_Cutout_Black" data-name="05.Square_Cutout_Black"><g id="C"><path d="m375 0h-250a124.994 124.994 0 0 0 -125 125v250a124.994 124.994 0 0 0 125 125h250a124.994 124.994 0 0 0 125-125v-250a124.994 124.994 0 0 0 -125-125zm-168.27 303.19q17.67 19.83 46.15 19.83 17.67 0 31.56-8.3 13.875-8.28 21.45-24.16h67.79q-10.815 41.115-42.91 64.73t-77.16 23.62q-36.78 0-65.81-16.41a116.324 116.324 0 0 1 -45.25-45.61q-16.23-29.2-16.23-66.71t16.23-66.89a116 116 0 0 1 45.25-45.79q29.025-16.41 65.81-16.41 45.06 0 77.16 23.8t42.91 64.91h-67.79q-7.575-15.87-21.45-24.16a60.361 60.361 0 0 0 -31.56-8.3q-28.485 0-46.15 19.84t-17.67 53q0 33.18 17.67 53.01z"/></g></g></g></svg>