<svg height="512" viewBox="0 0 64 64" width="512" xmlns="http://www.w3.org/2000/svg"><g id="_21_Sticky_note" data-name="21 Sticky note"><path d="m53.4341 9.4106a2.9794 2.9794 0 0 0 -1.9624-1.19l-38.5547-5.8812a3.0051 3.0051 0 0 0 -3.418 2.5136l-6.4839 42.5083a3.021 3.021 0 0 0 2.5132 3.4187l31.0817 4.741a10.5526 10.5526 0 0 0 12.03-8.8457l5.3443-35.0366a2.9811 2.9811 0 0 0 -.5502-2.2281z" fill="#29b6f6"/><path d="m52.46 57.75c-.14.01-2.28.29-5.4.7-8.91 1.17-25.73 3.39-26.17 3.39a3.0039 3.0039 0 0 1 -2.97-2.61l-5.55-42.64a3.0323 3.0323 0 0 1 2.59-3.37l38.67-5.03a3.01 3.01 0 0 1 3.36 2.58l4.01 30.77.57 4.38a10.5668 10.5668 0 0 1 -9.11 11.83z" fill="#ffd740"/><path d="m52.46 57.75c-.14.01-2.28.29-5.4.7a25.1105 25.1105 0 0 0 .67-5.73c-1.15-5.24 1.81-9.95 7.7-9.96.72-.1 3.54-.67 5.57-1.22l.57 4.38a10.5668 10.5668 0 0 1 -9.11 11.83z" fill="#f9c112"/><path d="m41.7061 9.7935-6.01 6.0107c-.9289.9033.509 2.3473 1.4141 1.4141l6.01-6.0108c.3905-.3906-1.0235-1.8047-1.4141-1.414z" fill="#37474f"/><path d="m50.84 6.4937a2.4 2.4 0 0 0 -.708-1.7085l-2.0031-2.0035a2.4743 2.4743 0 0 0 -3.4175 0l-1.8814 1.8814a5.3037 5.3037 0 0 0 -4.5371 1.75 1 1 0 0 0 .0161 1.3979l6.7939 6.794a1.006 1.006 0 0 0 1.42-.0054 5.4762 5.4762 0 0 0 1.6451-4.4316l1.9643-1.9649a2.4006 2.4006 0 0 0 .7077-1.7094z" fill="#e53935"/><g fill="#ffa000"><path d="m19.9951 29.7021a1.0021 1.0021 0 0 1 -.1279-1.9917l32.7236-4.2622a1 1 0 0 1 .2588 1.9834l-32.7236 4.2622a.98.98 0 0 1 -.1309.0083z"/><path d="m24.0493 22.1147a1.0021 1.0021 0 0 1 -.1274-1.9917l22.8076-2.97a1 1 0 0 1 .2578 1.9834l-22.8073 2.97a.9676.9676 0 0 1 -.1307.0083z"/><path d="m20.8994 36.6436a1.0021 1.0021 0 0 1 -.1279-1.9917l32.7236-4.2619a1 1 0 0 1 .2588 1.9834l-32.7239 4.2619a.9972.9972 0 0 1 -.1306.0083z"/><path d="m21.8037 43.585a1.0021 1.0021 0 0 1 -.1279-1.9917l32.7231-4.2622a1 1 0 0 1 .2588 1.9834l-32.7231 4.2622a.9972.9972 0 0 1 -.1309.0083z"/><path d="m22.7075 50.5264a1.0021 1.0021 0 0 1 -.1274-1.9917l9.9165-1.2915a1 1 0 0 1 .2578 1.9834c-.1781.0143-9.8844 1.3041-10.0469 1.2998z"/></g></g></svg>