<svg id="Icons" height="512" viewBox="0 0 60 60" width="512" xmlns="http://www.w3.org/2000/svg"><path d="m30.99 23h-18.99a11 11 0 1 1 0-22h22a11 11 0 0 1 4 21.25z" fill="#33c455"/><path d="m59 36.6v11.4a11 11 0 0 1 -11 11h-8.52a11 11 0 0 1 -9.767-5.941l-10.323-19.929a3.6 3.6 0 0 1 -.39-1.61 3.512 3.512 0 0 1 6.54-1.79l5.43 9.22.03-25.45a3.507 3.507 0 0 1 4.235-3.425 3.565 3.565 0 0 1 2.765 3.525v19.9a3.507 3.507 0 0 1 4.235-3.425 3.565 3.565 0 0 1 2.765 3.525v.9a3.507 3.507 0 0 1 4.235-3.425 3.565 3.565 0 0 1 2.765 3.525v1.9a3.507 3.507 0 0 1 4.235-3.425 3.565 3.565 0 0 1 2.765 3.525z" fill="#f6cdaa"/><path d="m21 17a1 1 0 0 1 -.707-.293l-2-2a1 1 0 0 1 1.414-1.414l1.185 1.185 5.308-7.078a1 1 0 1 1 1.6 1.2l-6 8a1 1 0 0 1 -.729.4z" fill="#fff"/></svg>