<svg id="Layer_1" enable-background="new 0 0 510 510" height="512" viewBox="0 0 510 510" width="512" xmlns="http://www.w3.org/2000/svg"><g><g><path d="m180 442.5v30h75l15-52.5-15-52.5c-41.354 0-75 33.644-75 75z" fill="#40beff"/><path d="m330 442.5c0-41.354-33.644-75-75-75v105h75c0-10.492 0-19.508 0-30z" fill="#409fff"/><path d="m210 352.5c0 24.812 20.186 45 45 45l15-45-15-45c-24.812 0-45 20.185-45 45z" fill="#fdd0bb"/><path d="m300 352.5c0-24.812-20.185-45-45-45v90c24.812 0 45-20.185 45-45z" fill="#fcb0a2"/><path d="m0 37.5v253.027c7.842-5.228 56.676-37.784 64.541-43.027h155.028l35.431 29.525 15-134.525-15-105z" fill="#4d5086"/><path d="m445.459 247.5 64.541 43.027v-253.027h-255v239.525l35.431-29.525z" fill="#3d4072"/><path d="m195 97.5v30h60l15-15-15-15z" fill="#ebf3fe"/><path d="m450 97.5h-195v30h195c0-10.492 0-19.508 0-30z" fill="#d0e4fc"/><path d="m195 157.5v30h60l15-15-15-15z" fill="#ebf3fe"/><path d="m420 157.5h-165v30h165c0-10.492 0-19.508 0-30z" fill="#d0e4fc"/><path d="m100.834 178.713c-11.597-11.596-24.844-24.844-36.44-36.439 7.419-7.42 13.794-13.795 21.213-21.213 5.325 5.325 9.901 9.9 15.228 15.227 11.466-11.467 22.935-22.935 34.393-34.393 7.42 7.419 13.794 13.794 21.213 21.213-6.728 6.725-48.837 48.834-55.607 55.605z" fill="#66d45c"/><path d="m0 442.5v30h75l15-52.5-15-52.5c-41.354 0-75 33.644-75 75z" fill="#aee52e"/><path d="m150 442.5c0-41.354-33.644-75-75-75v105h75c0-10.492 0-19.508 0-30z" fill="#66d45c"/><path d="m30 352.5c0 24.812 20.185 45 45 45l15-45-15-45c-24.813 0-45 20.185-45 45z" fill="#fdd0bb"/><path d="m120 352.5c0-24.812-20.186-45-45-45v90c24.812 0 45-20.185 45-45z" fill="#fcb0a2"/><path d="m360 442.5v30h75l15-52.5-15-52.5c-41.353 0-75 33.644-75 75z" fill="#ff864a"/><path d="m510 442.5c0-41.354-33.644-75-75-75v105h75c0-10.492 0-19.508 0-30z" fill="#ff5e4a"/><path d="m390 352.5c0 24.812 20.185 45 45 45l15-45-15-45c-24.812 0-45 20.185-45 45z" fill="#fdd0bb"/><path d="m480 352.5c0-24.812-20.185-45-45-45v90c24.812 0 45-20.185 45-45z" fill="#fcb0a2"/></g></g></svg>