<svg id="Layer_1" enable-background="new 0 0 24 24" height="512" viewBox="0 0 24 24" width="512" xmlns="http://www.w3.org/2000/svg"><circle cx="12" cy="12" fill="#2f80ed" r="12"/><g><g><path d="m12 19c-.4 0-.7-.3-.7-.7v-9.8c0-.4.3-.7.7-.7s.7.3.7.7v9.8c0 .4-.3.7-.7.7z" fill="#fff"/></g><g><path d="m16.2 13.4c-.2 0-.4-.1-.5-.2l-3.7-3.7-3.7 3.7c-.3.3-.7.3-1 0s-.3-.7 0-1l4.2-4.2c.3-.3.7-.3 1 0l4.2 4.2c.3.3.3.7 0 1-.2.1-.3.2-.5.2z" fill="#fff"/></g><g><path d="m16.2 6.4h-8.4c-.4 0-.7-.3-.7-.7s.3-.7.7-.7h8.4c.4 0 .7.3.7.7s-.3.7-.7.7z" fill="#fff"/></g></g></svg>