<svg id="Layer_1" enable-background="new 0 0 511 511" height="512" viewBox="0 0 511 511" width="512" xmlns="http://www.w3.org/2000/svg"><g><g><path d="m487.169 331.099c.221-.853.434-1.712.645-2.572-.209.86-.427 1.716-.645 2.572z" fill="#bfe5fe"/><path d="m255.5 32.836c-92.005 0-148.676 51.892-148.832 51.98-3.551 16.39-9.727 40.175-9.727 57.628 0 132.041 111.35 239.056 243.391 239.056 56.27 0 107.971-26.2 148.811-58.729.167-1.019 5.438-22.011 5.438-50.853.001-132.041-107.04-239.082-239.081-239.082z" fill="#ffe565"/><path d="m340.312 374.751c-132.041 0-239.082-107.041-239.082-239.082 0-17.453 1.888-34.463 5.438-50.853-.005.004-.011.009-.016.013-54.984 43.804-90.234 111.325-90.234 187.089 0 90.739 50.549 169.671 125.024 210.173l247.725-11.931c47.841-32.331 83.349-81.53 98.002-139.062.218-.856.437-1.712.645-2.572.099-.409 1.001-4.24 1.329-5.756-40.84 32.531-92.561 51.981-148.831 51.981z" fill="#ffd508"/></g><g><path d="m261.55 191.231v310.838c33.414-.831 65.122.329 93.774-12.86 11.831-5.446 23.141-11.83 33.835-19.058l12.4-278.92z" fill="#4572e3"/><path d="m355.324 489.207h-46.391c-24.149 0-43.726-19.577-43.726-43.726v-254.25h-136.695l12.931 290.859c33.899 18.436 72.755 28.91 114.057 28.91 35.638 0 69.446-7.809 99.824-21.793z" fill="#3342ae"/><g><g><path d="m249.54 91.558-108.453 108.453-53.441-53.441c-13.557-13.557-13.557-35.617 0-49.174l59.279-59.279c13.557-13.557 35.617-13.557 49.174 0zm-108.453 68.118 68.118-68.118-33.274-33.274c-2.437-2.437-6.402-2.437-8.839 0l-59.279 59.279c-2.437 2.437-2.437 6.402 0 8.839z" fill="#3342ae"/></g><path d="m109.689 64.152h209.241v67.094h-209.241z" fill="#4572e3" transform="matrix(.707 -.707 .707 .707 -6.314 180.155)"/><path d="m58.037 168.482h103.887v67.094h-103.887z" fill="#1a396b" transform="matrix(.707 -.707 .707 .707 -110.643 136.941)"/></g><g><path d="m265.036 489.385c-9.189 0-16.637-7.449-16.637-16.637v-204.128c0-9.189 7.449-16.637 16.637-16.637 9.189 0 16.637 7.449 16.637 16.637v204.128c0 9.188-7.448 16.637-16.637 16.637z" fill="#1a396b"/></g><g><path d="m198.806 489.385c-8.798 0-16.146-6.9-16.602-15.786l-10.458-204.128c-.47-9.177 6.588-16.997 15.764-17.467 9.196-.466 16.997 6.589 17.467 15.764l10.458 204.128c.47 9.177-6.588 16.997-15.764 17.467-.29.015-.579.022-.865.022z" fill="#1a396b"/></g><g><path d="m332.883 489.385c-.288 0-.575-.007-.865-.022-9.177-.47-16.234-8.291-15.765-17.467l10.458-204.128c.47-9.177 8.283-16.234 17.467-15.765 9.177.47 16.234 8.291 15.765 17.467l-10.458 204.128c-.456 8.887-7.805 15.787-16.602 15.787z" fill="#1a396b"/></g><path d="m316.073 91.201-16.732 25.837c-2.426 3.745-6.584 6.007-11.046 6.007-10.774 0-16.983 12.24-10.619 20.933l12.806 17.494c3.03 4.138 8.187 6.14 13.215 5.128l29.782-5.994c2.986-.601 6.087-.148 8.776 1.282l25.147 13.374c7.072 3.761 15.835.386 18.557-7.148l11.596-32.101c2.279-6.31-.553-13.324-6.574-16.283l-18.651-9.163c-3.249-1.596-5.697-4.46-6.768-7.918l-4.635-14.966c-2.163-6.985-9.606-10.867-16.572-8.644l-21.238 6.778c-2.899.926-5.389 2.829-7.044 5.384z" fill="#fff"/></g></g></svg>